<svg width="36" height="67" viewBox="0 0 36 67" fill="none" xmlns="http://www.w3.org/2000/svg">
<g clip-path="url(#clip0_382_25052)">
<path d="M1.92875 6.13589C1.63178 5.82163 1.39962 5.45196 1.24552 5.04798C1.09142 4.644 1.01839 4.21362 1.03062 3.78142C1.04284 3.34921 1.14008 2.92365 1.31677 2.52903C1.49347 2.1344 1.74615 1.77844 2.06041 1.48148C2.37467 1.18451 2.74435 0.952346 3.14833 0.798245C3.55231 0.644144 3.98269 0.571122 4.41489 0.583348C4.84709 0.595574 5.27266 0.69281 5.66728 0.869502C6.0619 1.04619 6.41786 1.29888 6.71483 1.61314L34.694 31.2381C35.2718 31.8493 35.5938 32.6585 35.5938 33.4995C35.5938 34.3406 35.2718 35.1497 34.694 35.7609L6.71483 65.3892C6.41982 65.7103 6.06394 65.9697 5.66787 66.1521C5.27179 66.3345 4.84342 66.4364 4.40762 66.4519C3.97182 66.4674 3.53728 66.3961 3.12926 66.2423C2.72124 66.0884 2.34785 65.855 2.0308 65.5556C1.71374 65.2562 1.45934 64.8968 1.28236 64.4983C1.10537 64.0997 1.00935 63.67 0.999855 63.234C0.99036 62.798 1.06758 62.3645 1.22705 61.9587C1.38651 61.5528 1.62503 61.1826 1.92875 60.8697L27.7749 33.4995L1.92875 6.13589Z" fill="#ADBDC7"/>
</g>
<defs>
<clipPath id="clip0_382_25052">
<rect width="35" height="67" fill="white" transform="matrix(-1 0 0 1 35.8223 0)"/>
</clipPath>
</defs>
</svg>
