<svg width="26" height="26" viewBox="0 0 26 26" fill="none" xmlns="http://www.w3.org/2000/svg">
<g clip-path="url(#clip0_127_3071)">
<path fill-rule="evenodd" clip-rule="evenodd" d="M7.67724 0.167302C9.05389 0.103927 9.49282 0.0898438 12.9996 0.0898438C16.5063 0.0898438 16.9452 0.105101 18.3207 0.167302C19.6962 0.229503 20.6351 0.448969 21.4566 0.767017C22.3169 1.09211 23.0973 1.60028 23.7428 2.2575C24.4 2.90182 24.907 3.68109 25.2309 4.54252C25.5502 5.36405 25.7685 6.30294 25.8318 7.67607C25.8952 9.05506 25.9093 9.49399 25.9093 12.9996C25.9093 16.5063 25.894 16.9452 25.8318 18.3219C25.7696 19.695 25.5502 20.6339 25.2309 21.4554C24.907 22.317 24.3992 23.0976 23.7428 23.7428C23.0973 24.4 22.3169 24.907 21.4566 25.2309C20.6351 25.5502 19.6962 25.7685 18.3231 25.8318C16.9452 25.8952 16.5063 25.9093 12.9996 25.9093C9.49282 25.9093 9.05389 25.894 7.67724 25.8318C6.30412 25.7696 5.36523 25.5502 4.5437 25.2309C3.68217 24.907 2.90161 24.3992 2.25633 23.7428C1.59955 23.0981 1.0913 22.3179 0.767017 21.4566C0.448969 20.6351 0.230677 19.6962 0.167302 18.3231C0.103927 16.9441 0.0898438 16.5051 0.0898438 12.9996C0.0898438 9.49282 0.105101 9.05389 0.167302 7.67841C0.229503 6.30294 0.448969 5.36405 0.767017 4.54252C1.09178 3.68119 1.60042 2.90101 2.2575 2.25633C2.90186 1.5997 3.68165 1.09145 4.54252 0.767017C5.36405 0.448969 6.30294 0.230677 7.67607 0.167302H7.67724ZM18.2163 2.49105C16.8549 2.42885 16.4465 2.41594 12.9996 2.41594C9.55267 2.41594 9.14425 2.42885 7.78286 2.49105C6.52358 2.54856 5.84054 2.75864 5.38518 2.93585C4.78311 3.17057 4.3524 3.44872 3.90056 3.90056C3.47224 4.31725 3.14262 4.82452 2.93585 5.38518C2.75864 5.84054 2.54856 6.52358 2.49105 7.78286C2.42885 9.14425 2.41594 9.55267 2.41594 12.9996C2.41594 16.4465 2.42885 16.8549 2.49105 18.2163C2.54856 19.4756 2.75864 20.1586 2.93585 20.614C3.14241 21.1738 3.47219 21.6819 3.90056 22.0986C4.31719 22.5269 4.82537 22.8567 5.38518 23.0633C5.84054 23.2405 6.52358 23.4506 7.78286 23.5081C9.14425 23.5703 9.5515 23.5832 12.9996 23.5832C16.4476 23.5832 16.8549 23.5703 18.2163 23.5081C19.4756 23.4506 20.1586 23.2405 20.614 23.0633C21.216 22.8286 21.6467 22.5504 22.0986 22.0986C22.5269 21.6819 22.8567 21.1738 23.0633 20.614C23.2405 20.1586 23.4506 19.4756 23.5081 18.2163C23.5703 16.8549 23.5832 16.4465 23.5832 12.9996C23.5832 9.55267 23.5703 9.14425 23.5081 7.78286C23.4506 6.52358 23.2405 5.84054 23.0633 5.38518C22.8286 4.78311 22.5504 4.3524 22.0986 3.90056C21.6819 3.47227 21.1746 3.14265 20.614 2.93585C20.1586 2.75864 19.4756 2.54856 18.2163 2.49105ZM11.3506 16.9793C12.2715 17.3626 13.2969 17.4144 14.2517 17.1257C15.2065 16.837 16.0315 16.2257 16.5857 15.3964C17.1399 14.567 17.3889 13.571 17.2903 12.5784C17.1918 11.5858 16.7516 10.6582 16.0451 9.95405C15.5947 9.50394 15.0501 9.15929 14.4505 8.94491C13.851 8.73053 13.2113 8.65176 12.5776 8.71426C11.944 8.77676 11.332 8.97898 10.7859 9.30637C10.2398 9.63375 9.77301 10.0781 9.41923 10.6076C9.06546 11.137 8.83347 11.7383 8.73996 12.3681C8.64646 12.998 8.69376 13.6407 8.87848 14.2501C9.06319 14.8594 9.38071 15.4203 9.80819 15.8922C10.2357 16.3641 10.7625 16.7354 11.3506 16.9793ZM8.30747 8.30747C8.92364 7.69129 9.65515 7.20252 10.4602 6.86905C11.2653 6.53557 12.1282 6.36394 12.9996 6.36394C13.871 6.36394 14.7338 6.53557 15.5389 6.86905C16.344 7.20252 17.0755 7.69129 17.6917 8.30747C18.3078 8.92364 18.7966 9.65515 19.1301 10.4602C19.4636 11.2653 19.6352 12.1282 19.6352 12.9996C19.6352 13.871 19.4636 14.7338 19.1301 15.5389C18.7966 16.344 18.3078 17.0755 17.6917 17.6917C16.4472 18.9361 14.7594 19.6352 12.9996 19.6352C11.2397 19.6352 9.55189 18.9361 8.30747 17.6917C7.06305 16.4472 6.36394 14.7594 6.36394 12.9996C6.36394 11.2397 7.06305 9.55189 8.30747 8.30747ZM21.1069 7.35215C21.2596 7.20811 21.3818 7.0349 21.4664 6.84277C21.5509 6.65064 21.596 6.4435 21.5991 6.23362C21.6022 6.02373 21.5631 5.81536 21.4842 5.62085C21.4053 5.42634 21.2881 5.24964 21.1397 5.10121C20.9913 4.95278 20.8146 4.83564 20.62 4.75673C20.4255 4.67782 20.2172 4.63873 20.0073 4.64179C19.7974 4.64485 19.5903 4.68999 19.3981 4.77454C19.206 4.85909 19.0328 4.98133 18.8887 5.13402C18.6086 5.43098 18.4553 5.82542 18.4612 6.23362C18.4672 6.64181 18.632 7.03161 18.9206 7.32028C19.2093 7.60894 19.5991 7.77374 20.0073 7.7797C20.4155 7.78565 20.8099 7.63228 21.1069 7.35215Z" fill="white"/>
</g>
<defs>
<clipPath id="clip0_127_3071">
<rect width="26" height="26" fill="white"/>
</clipPath>
</defs>
</svg>
