<svg width="26" height="26" viewBox="0 0 26 26" fill="none" xmlns="http://www.w3.org/2000/svg">
<rect x="1" y="1" width="24" height="24" rx="4" stroke="white" stroke-width="2"/>
<path d="M18.3815 8.99385C18.2802 8.94498 18.1817 8.89141 18.0862 8.83333C17.8086 8.66207 17.5542 8.46028 17.3282 8.23232C16.7623 7.6282 16.551 7.01537 16.4737 6.5867H16.4763C16.4117 6.2302 16.4383 6 16.443 6H13.8666V15.297C13.8666 15.4214 13.8666 15.5452 13.8612 15.6672C13.8612 15.6821 13.8592 15.6958 13.8586 15.7126C13.8586 15.7188 13.8586 15.7263 13.8566 15.7331V15.7387C13.8295 16.0722 13.715 16.3944 13.5232 16.6769C13.3314 16.9594 13.0682 17.1936 12.7567 17.3588C12.4316 17.5314 12.064 17.6219 11.6901 17.6214C10.4902 17.6214 9.51695 16.7081 9.51695 15.5801C9.51695 14.4515 10.4902 13.5381 11.6901 13.5381C11.9174 13.5381 12.1434 13.5717 12.3594 13.6377L12.3627 11.1888C11.7068 11.1099 11.0404 11.1587 10.4057 11.3321C9.77098 11.5056 9.18169 11.8 8.67502 12.1968C8.23096 12.5567 7.85762 12.9862 7.57179 13.466C7.46313 13.6408 7.0525 14.3445 7.00317 15.4855C6.97184 16.1326 7.18049 16.8045 7.27981 17.0814V17.0876C7.34181 17.2506 7.58445 17.808 7.97908 18.2778C8.29732 18.6548 8.67332 18.986 9.09498 19.2608V19.2546L9.10098 19.2608C10.3475 20.0509 11.7307 19.9993 11.7307 19.9993C11.9701 19.99 12.772 19.9993 13.6826 19.5968C14.6925 19.1501 15.2671 18.485 15.2671 18.485C15.6345 18.0875 15.9266 17.6345 16.131 17.1454C16.3643 16.5731 16.4417 15.8874 16.4417 15.6137V10.6805C16.473 10.698 16.8896 10.9549 16.8896 10.9549C16.8896 10.9549 17.4896 11.3139 18.4248 11.5472C19.0954 11.7133 20 11.7488 20 11.7488V9.36155C19.6834 9.3939 19.0401 9.30058 18.3808 8.99447L18.3815 8.99385Z" fill="white"/>
</svg>
