<svg width="16" height="18" viewBox="0 0 16 18" fill="none" xmlns="http://www.w3.org/2000/svg">
<g clip-path="url(#clip0_1502_4544)">
<path d="M11 10.5938C10.0391 10.5938 9.57701 11.125 8 11.125C6.42299 11.125 5.96429 10.5938 5 10.5938C2.51562 10.5938 0.5 12.5926 0.5 15.0562V15.9062C0.5 16.7861 1.21987 17.5 2.10714 17.5H13.8929C14.7801 17.5 15.5 16.7861 15.5 15.9062V15.0562C15.5 12.5926 13.4844 10.5938 11 10.5938ZM13.8929 15.9062H2.10714V15.0562C2.10714 13.4758 3.40625 12.1875 5 12.1875C5.48884 12.1875 6.28237 12.7188 8 12.7188C9.73103 12.7188 10.5078 12.1875 11 12.1875C12.5938 12.1875 13.8929 13.4758 13.8929 15.0562V15.9062ZM8 10.0625C10.6618 10.0625 12.8214 7.9209 12.8214 5.28125C12.8214 2.6416 10.6618 0.5 8 0.5C5.33817 0.5 3.17857 2.6416 3.17857 5.28125C3.17857 7.9209 5.33817 10.0625 8 10.0625ZM8 2.09375C9.7712 2.09375 11.2143 3.5248 11.2143 5.28125C11.2143 7.0377 9.7712 8.46875 8 8.46875C6.22879 8.46875 4.78571 7.0377 4.78571 5.28125C4.78571 3.5248 6.22879 2.09375 8 2.09375Z" fill="white"/>
</g>
<defs>
<clipPath id="clip0_1502_4544">
<rect width="15" height="17" fill="white" transform="translate(0.5 0.5)"/>
</clipPath>
</defs>
</svg>
