<svg width="205" height="42" viewBox="0 0 205 42" fill="none" xmlns="http://www.w3.org/2000/svg">
<mask id="path-1-outside-1_389_6608" maskUnits="userSpaceOnUse" x="-1" y="-1" width="207" height="44" fill="black">
<rect fill="white" x="-1" y="-1" width="207" height="44"/>
<path d="M0.475 18V0.499999H14.1V3.175H3.675V7.475H8.85C10.95 7.475 12.5417 7.91667 13.625 8.8C14.725 9.66667 15.275 10.9333 15.275 12.6C15.275 14.3167 14.6667 15.65 13.45 16.6C12.25 17.5333 10.55 18 8.35 18H0.475ZM3.675 15.5H8.175C9.425 15.5 10.375 15.2583 11.025 14.775C11.675 14.2917 12 13.5917 12 12.675C12 10.875 10.725 9.975 8.175 9.975H3.675V15.5ZM17.8484 15.25C18.7651 15.5667 19.5734 15.65 20.2734 15.5C20.9734 15.35 21.5984 14.8417 22.1484 13.975L22.9984 12.65L23.3234 12.3L29.4234 0.499999H32.6234L25.0234 14.625C24.4068 15.8083 23.6734 16.7083 22.8234 17.325C21.9734 17.9417 21.0568 18.2833 20.0734 18.35C19.1068 18.4333 18.0984 18.25 17.0484 17.8L17.8484 15.25ZM23.2484 15.1L15.4484 0.499999H18.9234L25.0234 12.6L23.2484 15.1ZM45.6395 16.5V3.25H38.7895L38.6645 6.35C38.6145 7.51667 38.5395 8.625 38.4395 9.675C38.3561 10.7083 38.2145 11.65 38.0145 12.5C37.8311 13.35 37.5728 14.0583 37.2395 14.625C36.9061 15.1917 36.4978 15.5667 36.0145 15.75L32.5145 15.25C33.1478 15.2833 33.6645 15.0667 34.0645 14.6C34.4811 14.1333 34.8061 13.4833 35.0395 12.65C35.2728 11.8167 35.4478 10.8417 35.5645 9.725C35.6811 8.59167 35.7645 7.36667 35.8145 6.05L36.0145 0.499999H48.8395V16.5H45.6395ZM31.9145 21.725L31.9395 15.25H51.3645V21.725H48.3645V18H34.9395V21.725H31.9145ZM61.8746 6.425C63.9579 6.425 65.5663 6.89167 66.6996 7.825C67.8329 8.75833 68.3996 10.1583 68.3996 12.025C68.3996 13.9917 67.7746 15.4833 66.5246 16.5C65.2913 17.5 63.5663 18 61.3496 18H53.8246V0.499999H57.0246V6.425H61.8746ZM61.1996 15.5C62.4496 15.5 63.4163 15.2083 64.0996 14.625C64.7996 14.0417 65.1496 13.1917 65.1496 12.075C65.1496 10.975 64.8079 10.175 64.1246 9.675C63.4413 9.15833 62.4663 8.9 61.1996 8.9H57.0246V15.5H61.1996ZM77.4037 18V0.499999H85.2287C87.1954 0.499999 88.7287 0.891665 89.8287 1.675C90.9287 2.44167 91.4787 3.55 91.4787 5C91.4787 6.43333 90.9537 7.54167 89.9037 8.325C88.8537 9.09167 87.4704 9.475 85.7537 9.475L86.2037 8.575C88.1537 8.575 89.662 8.96667 90.7287 9.75C91.7954 10.5333 92.3287 11.6667 92.3287 13.15C92.3287 14.6667 91.7704 15.8583 90.6537 16.725C89.537 17.575 87.887 18 85.7037 18H77.4037ZM80.6037 15.5H85.6037C86.737 15.5 87.5954 15.2917 88.1787 14.875C88.762 14.4417 89.0537 13.7833 89.0537 12.9C89.0537 12.0167 88.762 11.375 88.1787 10.975C87.5954 10.5583 86.737 10.35 85.6037 10.35H80.6037V15.5ZM80.6037 7.975H84.9537C86.0037 7.975 86.8037 7.76667 87.3537 7.35C87.9037 6.91667 88.1787 6.3 88.1787 5.5C88.1787 4.66667 87.9037 4.04167 87.3537 3.625C86.8037 3.20833 86.0037 3 84.9537 3H80.6037V7.975ZM95.4311 18V0.499999H98.0811L105.756 13.275H104.331L111.881 0.499999H114.531L114.581 18H111.481L111.456 5.325H112.106L105.706 16H104.256L97.7561 5.325H98.5061V18H95.4311ZM121.853 7.775H130.553V10.45H121.853V7.775ZM122.103 15.275H131.978V18H118.853V0.499999H131.628V3.225H122.103V15.275ZM143.026 18.25C141.693 18.25 140.451 18.0333 139.301 17.6C138.168 17.15 137.176 16.525 136.326 15.725C135.493 14.9083 134.843 13.95 134.376 12.85C133.91 11.75 133.676 10.55 133.676 9.25C133.676 7.95 133.91 6.75 134.376 5.65C134.843 4.55 135.501 3.6 136.351 2.8C137.201 1.98333 138.193 1.35833 139.326 0.924999C140.46 0.474999 141.701 0.249999 143.051 0.249999C144.485 0.249999 145.793 0.499999 146.976 1C148.16 1.48333 149.16 2.20833 149.976 3.175L147.876 5.15C147.243 4.46667 146.535 3.95833 145.751 3.625C144.968 3.275 144.118 3.1 143.201 3.1C142.285 3.1 141.443 3.25 140.676 3.55C139.926 3.85 139.268 4.275 138.701 4.825C138.151 5.375 137.718 6.025 137.401 6.775C137.101 7.525 136.951 8.35 136.951 9.25C136.951 10.15 137.101 10.975 137.401 11.725C137.718 12.475 138.151 13.125 138.701 13.675C139.268 14.225 139.926 14.65 140.676 14.95C141.443 15.25 142.285 15.4 143.201 15.4C144.118 15.4 144.968 15.2333 145.751 14.9C146.535 14.55 147.243 14.025 147.876 13.325L149.976 15.325C149.16 16.275 148.16 17 146.976 17.5C145.793 18 144.476 18.25 143.026 18.25ZM155.849 18V2.45L156.624 3.25H150.074V0.499999H164.874V3.25H158.324L159.074 2.45V18H155.849ZM170.052 7.775H178.752V10.45H170.052V7.775ZM170.302 15.275H180.177V18H167.052V0.499999H179.827V3.225H170.302V15.275ZM197.509 18.25C196.175 18.25 194.934 18.0333 193.784 17.6C192.65 17.15 191.659 16.525 190.809 15.725C189.975 14.9083 189.325 13.95 188.859 12.85C188.392 11.75 188.159 10.55 188.159 9.25C188.159 7.95 188.392 6.75 188.859 5.65C189.325 4.55 189.984 3.6 190.834 2.8C191.684 1.98333 192.675 1.35833 193.809 0.924999C194.942 0.474999 196.184 0.249999 197.534 0.249999C198.967 0.249999 200.275 0.499999 201.459 1C202.642 1.48333 203.642 2.20833 204.459 3.175L202.359 5.15C201.725 4.46667 201.017 3.95833 200.234 3.625C199.45 3.275 198.6 3.1 197.684 3.1C196.767 3.1 195.925 3.25 195.159 3.55C194.409 3.85 193.75 4.275 193.184 4.825C192.634 5.375 192.2 6.025 191.884 6.775C191.584 7.525 191.434 8.35 191.434 9.25C191.434 10.15 191.584 10.975 191.884 11.725C192.2 12.475 192.634 13.125 193.184 13.675C193.75 14.225 194.409 14.65 195.159 14.95C195.925 15.25 196.767 15.4 197.684 15.4C198.6 15.4 199.45 15.2333 200.234 14.9C201.017 14.55 201.725 14.025 202.359 13.325L204.459 15.325C203.642 16.275 202.642 17 201.459 17.5C200.275 18 198.959 18.25 197.509 18.25ZM0.35 41V23.5H8.55C10.65 23.5 12.25 23.9167 13.35 24.75C14.45 25.5667 15 26.6667 15 28.05C15 28.9833 14.7833 29.7833 14.35 30.45C13.9167 31.1 13.3333 31.6083 12.6 31.975C11.8833 32.325 11.1 32.5 10.25 32.5L10.7 31.6C11.6833 31.6 12.5667 31.7833 13.35 32.15C14.1333 32.5 14.75 33.0167 15.2 33.7C15.6667 34.3833 15.9 35.2333 15.9 36.25C15.9 37.75 15.325 38.9167 14.175 39.75C13.025 40.5833 11.3167 41 9.05 41H0.35ZM3.6 38.45H8.85C10.0667 38.45 11 38.25 11.65 37.85C12.3 37.45 12.625 36.8083 12.625 35.925C12.625 35.0583 12.3 34.425 11.65 34.025C11 33.6083 10.0667 33.4 8.85 33.4H3.35V30.875H8.2C9.33333 30.875 10.2 30.675 10.8 30.275C11.4167 29.875 11.725 29.275 11.725 28.475C11.725 27.6583 11.4167 27.05 10.8 26.65C10.2 26.25 9.33333 26.05 8.2 26.05H3.6V38.45ZM21.7436 30.775H30.4436V33.45H21.7436V30.775ZM21.9936 38.275H31.8686V41H18.7436V23.5H31.5186V26.225H21.9936V38.275ZM49.3508 41.25C47.9841 41.25 46.7258 41.025 45.5758 40.575C44.4258 40.125 43.4258 39.5 42.5758 38.7C41.7258 37.8833 41.0674 36.9333 40.6008 35.85C40.1341 34.75 39.9008 33.55 39.9008 32.25C39.9008 30.95 40.1341 29.7583 40.6008 28.675C41.0674 27.575 41.7258 26.625 42.5758 25.825C43.4258 25.0083 44.4258 24.375 45.5758 23.925C46.7258 23.475 47.9758 23.25 49.3258 23.25C50.6924 23.25 51.9424 23.475 53.0758 23.925C54.2258 24.375 55.2258 25.0083 56.0758 25.825C56.9258 26.625 57.5841 27.575 58.0508 28.675C58.5174 29.7583 58.7508 30.95 58.7508 32.25C58.7508 33.55 58.5174 34.75 58.0508 35.85C57.5841 36.95 56.9258 37.9 56.0758 38.7C55.2258 39.5 54.2258 40.125 53.0758 40.575C51.9424 41.025 50.7008 41.25 49.3508 41.25ZM49.3258 38.4C50.2091 38.4 51.0258 38.25 51.7758 37.95C52.5258 37.65 53.1758 37.225 53.7258 36.675C54.2758 36.1083 54.7008 35.4583 55.0008 34.725C55.3174 33.975 55.4758 33.15 55.4758 32.25C55.4758 31.35 55.3174 30.5333 55.0008 29.8C54.7008 29.05 54.2758 28.4 53.7258 27.85C53.1758 27.2833 52.5258 26.85 51.7758 26.55C51.0258 26.25 50.2091 26.1 49.3258 26.1C48.4424 26.1 47.6258 26.25 46.8758 26.55C46.1424 26.85 45.4924 27.2833 44.9258 27.85C44.3758 28.4 43.9424 29.05 43.6258 29.8C43.3258 30.5333 43.1758 31.35 43.1758 32.25C43.1758 33.1333 43.3258 33.95 43.6258 34.7C43.9424 35.45 44.3758 36.1083 44.9258 36.675C45.4758 37.225 46.1258 37.65 46.8758 37.95C47.6258 38.25 48.4424 38.4 49.3258 38.4ZM61.5707 41V23.5H64.2457L75.2207 36.975H73.8957V23.5H77.1207V41H74.4457L63.4707 27.525H64.7957V41H61.5707ZM84.185 30.775H92.885V33.45H84.185V30.775ZM84.435 38.275H94.31V41H81.185V23.5H93.96V26.225H84.435V38.275Z"/>
</mask>
<path d="M0.475 18H-0.525V19H0.475V18ZM0.475 0.499999V-0.500001H-0.525V0.499999H0.475ZM14.1 0.499999H15.1V-0.500001H14.1V0.499999ZM14.1 3.175V4.175H15.1V3.175H14.1ZM3.675 3.175V2.175H2.675V3.175H3.675ZM3.675 7.475H2.675V8.475H3.675V7.475ZM13.625 8.8L12.9931 9.57502L12.9996 9.58031L13.0061 9.58549L13.625 8.8ZM13.45 16.6L14.0639 17.3894L14.0654 17.3882L13.45 16.6ZM3.675 15.5H2.675V16.5H3.675V15.5ZM11.025 14.775L11.6217 15.5775H11.6217L11.025 14.775ZM3.675 9.975V8.975H2.675V9.975H3.675ZM1.475 18V0.499999H-0.525V18H1.475ZM0.475 1.5H14.1V-0.500001H0.475V1.5ZM13.1 0.499999V3.175H15.1V0.499999H13.1ZM14.1 2.175H3.675V4.175H14.1V2.175ZM2.675 3.175V7.475H4.675V3.175H2.675ZM3.675 8.475H8.85V6.475H3.675V8.475ZM8.85 8.475C10.8307 8.475 12.1585 8.89457 12.9931 9.57502L14.2569 8.02498C12.9248 6.93876 11.0693 6.475 8.85 6.475V8.475ZM13.0061 9.58549C13.8186 10.2256 14.275 11.1746 14.275 12.6H16.275C16.275 10.692 15.6314 9.10772 14.2439 8.01451L13.0061 9.58549ZM14.275 12.6C14.275 14.0482 13.7791 15.0743 12.8346 15.8118L14.0654 17.3882C15.5543 16.2257 16.275 14.5852 16.275 12.6H14.275ZM12.8361 15.8106C11.8749 16.5582 10.4239 17 8.35 17V19C10.6761 19 12.6251 18.5084 14.0639 17.3894L12.8361 15.8106ZM8.35 17H0.475V19H8.35V17ZM3.675 16.5H8.175V14.5H3.675V16.5ZM8.175 16.5C9.53034 16.5 10.7282 16.2419 11.6217 15.5775L10.4283 13.9725C10.0218 14.2748 9.31967 14.5 8.175 14.5V16.5ZM11.6217 15.5775C12.5615 14.8787 13 13.8601 13 12.675H11C11 13.3232 10.7885 13.7047 10.4283 13.9725L11.6217 15.5775ZM13 12.675C13 11.5074 12.567 10.5012 11.6204 9.83303C10.7376 9.20988 9.53716 8.975 8.175 8.975V10.975C9.36284 10.975 10.0749 11.1901 10.4671 11.467C10.7955 11.6988 11 12.0426 11 12.675H13ZM8.175 8.975H3.675V10.975H8.175V8.975ZM2.675 9.975V15.5H4.675V9.975H2.675ZM17.8484 15.25L18.175 14.3048L17.2023 13.9688L16.8943 14.9507L17.8484 15.25ZM20.2734 15.5L20.483 16.4778L20.2734 15.5ZM22.1484 13.975L21.3067 13.435L21.3041 13.4392L22.1484 13.975ZM22.9984 12.65L22.2656 11.9695L22.2049 12.0349L22.1567 12.11L22.9984 12.65ZM23.3234 12.3L24.0562 12.9805L24.1491 12.8804L24.2118 12.7592L23.3234 12.3ZM29.4234 0.499999V-0.500001H28.8147L28.5351 0.0407808L29.4234 0.499999ZM32.6234 0.499999L33.5041 0.97382L34.2971 -0.500001H32.6234V0.499999ZM25.0234 14.625L24.1427 14.1511L24.1366 14.1629L25.0234 14.625ZM22.8234 17.325L23.4107 18.1344L22.8234 17.325ZM20.0734 18.35L20.0058 17.3523L19.9967 17.3529L19.9875 17.3537L20.0734 18.35ZM17.0484 17.8L16.0943 17.5007L15.8237 18.3631L16.6545 18.7191L17.0484 17.8ZM23.2484 15.1L22.3664 15.5712L23.1281 16.9969L24.0638 15.6789L23.2484 15.1ZM15.4484 0.499999V-0.500001H13.7804L14.5664 0.971214L15.4484 0.499999ZM18.9234 0.499999L19.8164 0.0498357L19.5392 -0.500001H18.9234V0.499999ZM25.0234 12.6L25.8388 13.1789L26.1876 12.6877L25.9164 12.1498L25.0234 12.6ZM17.5219 16.1952C18.5519 16.551 19.5521 16.6773 20.483 16.4778L20.0639 14.5222C19.5947 14.6227 18.9783 14.5823 18.175 14.3048L17.5219 16.1952ZM20.483 16.4778C21.5413 16.251 22.3619 15.5049 22.9928 14.5108L21.3041 13.4392C20.835 14.1784 20.4056 14.449 20.0639 14.5222L20.483 16.4778ZM22.9901 14.515L23.8401 13.19L22.1567 12.11L21.3067 13.435L22.9901 14.515ZM23.7312 13.3305L24.0562 12.9805L22.5906 11.6195L22.2656 11.9695L23.7312 13.3305ZM24.2118 12.7592L30.3118 0.959217L28.5351 0.0407808L22.4351 11.8408L24.2118 12.7592ZM29.4234 1.5H32.6234V-0.500001H29.4234V1.5ZM31.7428 0.0261779L24.1428 14.1512L25.9041 15.0988L33.5041 0.97382L31.7428 0.0261779ZM24.1366 14.1629C23.5727 15.2449 22.9315 16.0111 22.2362 16.5156L23.4107 18.1344C24.4154 17.4055 25.2408 16.3717 25.9102 15.0871L24.1366 14.1629ZM22.2362 16.5156C21.5279 17.0295 20.7893 17.2992 20.0058 17.3523L20.1411 19.3477C21.3243 19.2675 22.419 18.8539 23.4107 18.1344L22.2362 16.5156ZM19.9875 17.3537C19.2115 17.4206 18.368 17.2776 17.4424 16.8809L16.6545 18.7191C17.8288 19.2224 19.002 19.4461 20.1593 19.3463L19.9875 17.3537ZM18.0026 18.0993L18.8026 15.5493L16.8943 14.9507L16.0943 17.5007L18.0026 18.0993ZM24.1305 14.6288L16.3305 0.0287836L14.5664 0.971214L22.3664 15.5712L24.1305 14.6288ZM15.4484 1.5H18.9234V-0.500001H15.4484V1.5ZM18.0305 0.950162L24.1305 13.0502L25.9164 12.1498L19.8164 0.0498357L18.0305 0.950162ZM24.2081 12.0211L22.4331 14.5211L24.0638 15.6789L25.8388 13.1789L24.2081 12.0211ZM45.6395 16.5H44.6395V17.5H45.6395V16.5ZM45.6395 3.25H46.6395V2.25H45.6395V3.25ZM38.7895 3.25V2.25H37.829L37.7903 3.20971L38.7895 3.25ZM38.6645 6.35L39.6635 6.39282L39.6636 6.39029L38.6645 6.35ZM38.4395 9.675L37.444 9.58019L37.4433 9.5874L37.4427 9.59462L38.4395 9.675ZM38.0145 12.5L37.041 12.271L37.0389 12.28L37.0369 12.2892L38.0145 12.5ZM37.2395 14.625L38.1014 15.132L37.2395 14.625ZM36.0145 15.75L35.873 16.74L36.1282 16.7764L36.3691 16.685L36.0145 15.75ZM32.5145 15.25L32.567 14.2514L32.373 16.24L32.5145 15.25ZM34.0645 14.6L33.3185 13.934L33.3118 13.9415L33.3052 13.9492L34.0645 14.6ZM35.0395 12.65L36.0024 12.9196L35.0395 12.65ZM35.5645 9.725L36.559 9.82891L36.5592 9.8274L35.5645 9.725ZM35.8145 6.05L36.8137 6.08795L36.8138 6.08601L35.8145 6.05ZM36.0145 0.499999V-0.500001H35.0498L35.0151 0.463986L36.0145 0.499999ZM48.8395 0.499999H49.8395V-0.500001H48.8395V0.499999ZM48.8395 16.5V17.5H49.8395V16.5H48.8395ZM31.9145 21.725L30.9145 21.7211L30.9106 22.725H31.9145V21.725ZM31.9395 15.25V14.25H30.9433L30.9395 15.2461L31.9395 15.25ZM51.3645 15.25H52.3645V14.25H51.3645V15.25ZM51.3645 21.725V22.725H52.3645V21.725H51.3645ZM48.3645 21.725H47.3645V22.725H48.3645V21.725ZM48.3645 18H49.3645V17H48.3645V18ZM34.9395 18V17H33.9395V18H34.9395ZM34.9395 21.725V22.725H35.9395V21.725H34.9395ZM46.6395 16.5V3.25H44.6395V16.5H46.6395ZM45.6395 2.25H38.7895V4.25H45.6395V2.25ZM37.7903 3.20971L37.6653 6.30971L39.6636 6.39029L39.7886 3.29029L37.7903 3.20971ZM37.6654 6.30718C37.616 7.4583 37.5421 8.5492 37.444 9.58019L39.4349 9.76981C39.5368 8.7008 39.6129 7.57503 39.6635 6.39282L37.6654 6.30718ZM37.4427 9.59462C37.3627 10.5869 37.2276 11.4779 37.041 12.271L38.9879 12.729C39.2013 11.8221 39.3496 10.8298 39.4362 9.75538L37.4427 9.59462ZM37.0369 12.2892C36.8693 13.0665 36.6425 13.6675 36.3775 14.118L38.1014 15.132C38.503 14.4492 38.793 13.6335 38.992 12.7108L37.0369 12.2892ZM36.3775 14.118C36.1277 14.5427 35.878 14.7322 35.6598 14.815L36.3691 16.685C37.1176 16.4011 37.6846 15.8406 38.1014 15.132L36.3775 14.118ZM36.1559 14.76L32.6559 14.26L32.373 16.24L35.873 16.74L36.1559 14.76ZM32.4619 16.2486C33.3936 16.2977 34.2143 15.9617 34.8237 15.2508L33.3052 13.9492C33.1146 14.1716 32.902 14.269 32.567 14.2514L32.4619 16.2486ZM34.8104 15.266C35.3599 14.6505 35.7428 13.8468 36.0024 12.9196L34.0765 12.3804C33.8694 13.1198 33.6023 13.6162 33.3185 13.934L34.8104 15.266ZM36.0024 12.9196C36.2546 12.0188 36.4381 10.9861 36.559 9.82891L34.5699 9.62109C34.4574 10.6973 34.2909 11.6145 34.0765 12.3804L36.0024 12.9196ZM36.5592 9.8274C36.6784 8.66964 36.763 7.4229 36.8137 6.08795L34.8152 6.01205C34.7659 7.31043 34.6839 8.5137 34.5697 9.6226L36.5592 9.8274ZM36.8138 6.08601L37.0138 0.536011L35.0151 0.463986L34.8151 6.01399L36.8138 6.08601ZM36.0145 1.5H48.8395V-0.500001H36.0145V1.5ZM47.8395 0.499999V16.5H49.8395V0.499999H47.8395ZM48.8395 15.5H45.6395V17.5H48.8395V15.5ZM32.9144 21.7289L32.9394 15.2539L30.9395 15.2461L30.9145 21.7211L32.9144 21.7289ZM31.9395 16.25H51.3645V14.25H31.9395V16.25ZM50.3645 15.25V21.725H52.3645V15.25H50.3645ZM51.3645 20.725H48.3645V22.725H51.3645V20.725ZM49.3645 21.725V18H47.3645V21.725H49.3645ZM48.3645 17H34.9395V19H48.3645V17ZM33.9395 18V21.725H35.9395V18H33.9395ZM34.9395 20.725H31.9145V22.725H34.9395V20.725ZM66.6996 7.825L66.0639 8.59693L66.6996 7.825ZM66.5246 16.5L67.1544 17.2768L67.1556 17.2758L66.5246 16.5ZM53.8246 18H52.8246V19H53.8246V18ZM53.8246 0.499999V-0.500001H52.8246V0.499999H53.8246ZM57.0246 0.499999H58.0246V-0.500001H57.0246V0.499999ZM57.0246 6.425H56.0246V7.425H57.0246V6.425ZM64.0996 14.625L63.4594 13.8567L63.4503 13.8644L64.0996 14.625ZM64.1246 9.675L63.5215 10.4727L63.5278 10.4774L63.5341 10.482L64.1246 9.675ZM57.0246 8.9V7.9H56.0246V8.9H57.0246ZM57.0246 15.5H56.0246V16.5H57.0246V15.5ZM61.8746 7.425C63.8215 7.425 65.1716 7.86206 66.0639 8.59693L67.3353 7.05307C65.961 5.92127 64.0944 5.425 61.8746 5.425V7.425ZM66.0639 8.59693C66.9063 9.29069 67.3996 10.3692 67.3996 12.025H69.3996C69.3996 9.94748 68.7596 8.22598 67.3353 7.05307L66.0639 8.59693ZM67.3996 12.025C67.3996 13.7639 66.8588 14.9392 65.8936 15.7242L67.1556 17.2758C68.6905 16.0274 69.3996 14.2195 69.3996 12.025H67.3996ZM65.8948 15.7232C64.8986 16.531 63.4265 17 61.3496 17V19C63.706 19 65.684 18.469 67.1544 17.2768L65.8948 15.7232ZM61.3496 17H53.8246V19H61.3496V17ZM54.8246 18V0.499999H52.8246V18H54.8246ZM53.8246 1.5H57.0246V-0.500001H53.8246V1.5ZM56.0246 0.499999V6.425H58.0246V0.499999H56.0246ZM57.0246 7.425H61.8746V5.425H57.0246V7.425ZM61.1996 16.5C62.595 16.5 63.8247 16.1745 64.7489 15.3856L63.4503 13.8644C63.0078 14.2422 62.3042 14.5 61.1996 14.5V16.5ZM64.7398 15.3932C65.7187 14.5775 66.1496 13.4151 66.1496 12.075H64.1496C64.1496 12.9682 63.8805 13.5059 63.4594 13.8568L64.7398 15.3932ZM66.1496 12.075C66.1496 10.761 65.7301 9.61067 64.7151 8.86797L63.5341 10.482C63.8857 10.7393 64.1496 11.189 64.1496 12.075H66.1496ZM64.7277 8.87734C63.8052 8.17983 62.5843 7.9 61.1996 7.9V9.9C62.3483 9.9 63.0773 10.1368 63.5215 10.4727L64.7277 8.87734ZM61.1996 7.9H57.0246V9.9H61.1996V7.9ZM56.0246 8.9V15.5H58.0246V8.9H56.0246ZM57.0246 16.5H61.1996V14.5H57.0246V16.5ZM77.4037 18H76.4037V19H77.4037V18ZM77.4037 0.499999V-0.500001H76.4037V0.499999H77.4037ZM89.8287 1.675L89.2486 2.48961L89.2569 2.4954L89.8287 1.675ZM89.9037 8.325L90.4934 9.13267L90.5017 9.12652L89.9037 8.325ZM85.7537 9.475L84.8593 9.02779L84.1357 10.475H85.7537V9.475ZM86.2037 8.575V7.575H85.5857L85.3093 8.12779L86.2037 8.575ZM90.6537 16.725L91.2594 17.5207L91.2668 17.515L90.6537 16.725ZM80.6037 15.5H79.6037V16.5H80.6037V15.5ZM88.1787 14.875L88.7599 15.6887L88.7675 15.6833L88.775 15.6777L88.1787 14.875ZM88.1787 10.975L87.5975 11.7887L87.6053 11.7943L87.6132 11.7997L88.1787 10.975ZM80.6037 10.35V9.35H79.6037V10.35H80.6037ZM80.6037 7.975H79.6037V8.975H80.6037V7.975ZM87.3537 7.35L87.9576 8.14709L87.9651 8.14136L87.9726 8.13549L87.3537 7.35ZM87.3537 3.625L87.9576 2.82791L87.9576 2.82791L87.3537 3.625ZM80.6037 3V2H79.6037V3H80.6037ZM78.4037 18V0.499999H76.4037V18H78.4037ZM77.4037 1.5H85.2287V-0.500001H77.4037V1.5ZM85.2287 1.5C87.0781 1.5 88.3793 1.87052 89.2486 2.48956L90.4088 0.860432C89.0781 -0.087188 87.3126 -0.500001 85.2287 -0.500001V1.5ZM89.2569 2.4954C90.0639 3.05785 90.4787 3.84572 90.4787 5H92.4787C92.4787 3.25427 91.7935 1.82548 90.4005 0.8546L89.2569 2.4954ZM90.4787 5C90.4787 6.15206 90.0764 6.94855 89.3057 7.52347L90.5017 9.12652C91.831 8.13479 92.4787 6.7146 92.4787 5H90.4787ZM89.314 7.51737C88.4827 8.12438 87.3259 8.475 85.7537 8.475V10.475C87.6149 10.475 89.2247 10.0589 90.4934 9.13263L89.314 7.51737ZM86.6481 9.92221L87.0981 9.02221L85.3093 8.12779L84.8593 9.02779L86.6481 9.92221ZM86.2037 9.575C88.037 9.575 89.3058 9.94573 90.1368 10.556L91.3206 8.944C90.0183 7.9876 88.2704 7.575 86.2037 7.575V9.575ZM90.1368 10.556C90.9132 11.1261 91.3287 11.9406 91.3287 13.15H93.3287C93.3287 11.3927 92.6776 9.94052 91.3206 8.944L90.1368 10.556ZM91.3287 13.15C91.3287 14.3838 90.8933 15.2732 90.0406 15.935L91.2668 17.515C92.6474 16.4435 93.3287 14.9496 93.3287 13.15H91.3287ZM90.048 15.9293C89.1785 16.5912 87.7823 17 85.7037 17V19C87.9917 19 89.8956 18.5588 91.2594 17.5207L90.048 15.9293ZM85.7037 17H77.4037V19H85.7037V17ZM80.6037 16.5H85.6037V14.5H80.6037V16.5ZM85.6037 16.5C86.8334 16.5 87.9343 16.2785 88.7599 15.6887L87.5975 14.0613C87.2565 14.3048 86.6407 14.5 85.6037 14.5V16.5ZM88.775 15.6777C89.668 15.0144 90.0537 14.0232 90.0537 12.9H88.0537C88.0537 13.5434 87.856 13.869 87.5824 14.0723L88.775 15.6777ZM90.0537 12.9C90.0537 11.7795 89.6678 10.7836 88.7442 10.1503L87.6132 11.7997C87.8562 11.9664 88.0537 12.2538 88.0537 12.9H90.0537ZM88.7599 10.1613C87.9343 9.57148 86.8334 9.35 85.6037 9.35V11.35C86.6407 11.35 87.2565 11.5452 87.5975 11.7887L88.7599 10.1613ZM85.6037 9.35H80.6037V11.35H85.6037V9.35ZM79.6037 10.35V15.5H81.6037V10.35H79.6037ZM80.6037 8.975H84.9537V6.975H80.6037V8.975ZM84.9537 8.975C86.1141 8.975 87.1641 8.74823 87.9576 8.14709L86.7499 6.55291C86.4434 6.7851 85.8933 6.975 84.9537 6.975V8.975ZM87.9726 8.13549C88.7996 7.48394 89.1787 6.55699 89.1787 5.5H87.1787C87.1787 6.04301 87.0079 6.3494 86.7348 6.56451L87.9726 8.13549ZM89.1787 5.5C89.1787 4.42642 88.8099 3.47364 87.9576 2.82791L86.7499 4.42209C86.9975 4.60969 87.1787 4.90691 87.1787 5.5H89.1787ZM87.9576 2.82791C87.1641 2.22677 86.1141 2 84.9537 2V4C85.8933 4 86.4434 4.1899 86.7499 4.42209L87.9576 2.82791ZM84.9537 2H80.6037V4H84.9537V2ZM79.6037 3V7.975H81.6037V3H79.6037ZM95.4311 18H94.4311V19H95.4311V18ZM95.4311 0.499999V-0.500001H94.4311V0.499999H95.4311ZM98.0811 0.499999L98.9383 -0.0149902L98.6469 -0.500001H98.0811V0.499999ZM105.756 13.275V14.275H107.523L106.613 12.76L105.756 13.275ZM104.331 13.275L103.47 12.7662L102.578 14.275H104.331V13.275ZM111.881 0.499999V-0.500001H111.31L111.02 -0.00878727L111.881 0.499999ZM114.531 0.499999L115.531 0.497142L115.528 -0.500001H114.531V0.499999ZM114.581 18V19H115.584L115.581 17.9971L114.581 18ZM111.481 18L110.481 18.002L110.483 19H111.481V18ZM111.456 5.325V4.325H110.454L110.456 5.32697L111.456 5.325ZM112.106 5.325L112.964 5.8392L113.872 4.325H112.106V5.325ZM105.706 16V17H106.272L106.564 16.5142L105.706 16ZM104.256 16L103.402 16.5201L103.694 17H104.256V16ZM97.7561 5.325V4.325H95.9764L96.9019 5.84507L97.7561 5.325ZM98.5061 5.325H99.5061V4.325H98.5061V5.325ZM98.5061 18V19H99.5061V18H98.5061ZM96.4311 18V0.499999H94.4311V18H96.4311ZM95.4311 1.5H98.0811V-0.500001H95.4311V1.5ZM97.2239 1.01499L104.899 13.79L106.613 12.76L98.9383 -0.0149902L97.2239 1.01499ZM105.756 12.275H104.331V14.275H105.756V12.275ZM105.192 13.7838L112.742 1.00878L111.02 -0.00878727L103.47 12.7662L105.192 13.7838ZM111.881 1.5H114.531V-0.500001H111.881V1.5ZM113.531 0.502856L113.581 18.0029L115.581 17.9971L115.531 0.497142L113.531 0.502856ZM114.581 17H111.481V19H114.581V17ZM112.481 17.998L112.456 5.32303L110.456 5.32697L110.481 18.002L112.481 17.998ZM111.456 6.325H112.106V4.325H111.456V6.325ZM111.248 4.8108L104.848 15.4858L106.564 16.5142L112.964 5.8392L111.248 4.8108ZM105.706 15H104.256V17H105.706V15ZM105.11 15.4799L98.6102 4.80493L96.9019 5.84507L103.402 16.5201L105.11 15.4799ZM97.7561 6.325H98.5061V4.325H97.7561V6.325ZM97.5061 5.325V18H99.5061V5.325H97.5061ZM98.5061 17H95.4311V19H98.5061V17ZM121.853 7.775V6.775H120.853V7.775H121.853ZM130.553 7.775H131.553V6.775H130.553V7.775ZM130.553 10.45V11.45H131.553V10.45H130.553ZM121.853 10.45H120.853V11.45H121.853V10.45ZM122.103 15.275H121.103V16.275H122.103V15.275ZM131.978 15.275H132.978V14.275H131.978V15.275ZM131.978 18V19H132.978V18H131.978ZM118.853 18H117.853V19H118.853V18ZM118.853 0.499999V-0.500001H117.853V0.499999H118.853ZM131.628 0.499999H132.628V-0.500001H131.628V0.499999ZM131.628 3.225V4.225H132.628V3.225H131.628ZM122.103 3.225V2.225H121.103V3.225H122.103ZM121.853 8.775H130.553V6.775H121.853V8.775ZM129.553 7.775V10.45H131.553V7.775H129.553ZM130.553 9.45H121.853V11.45H130.553V9.45ZM122.853 10.45V7.775H120.853V10.45H122.853ZM122.103 16.275H131.978V14.275H122.103V16.275ZM130.978 15.275V18H132.978V15.275H130.978ZM131.978 17H118.853V19H131.978V17ZM119.853 18V0.499999H117.853V18H119.853ZM118.853 1.5H131.628V-0.500001H118.853V1.5ZM130.628 0.499999V3.225H132.628V0.499999H130.628ZM131.628 2.225H122.103V4.225H131.628V2.225ZM121.103 3.225V15.275H123.103V3.225H121.103ZM139.301 17.6L138.932 18.5294L138.941 18.5327L138.949 18.5358L139.301 17.6ZM136.326 15.725L135.626 16.4392L135.634 16.4463L135.641 16.4532L136.326 15.725ZM134.376 12.85L133.456 13.2405L134.376 12.85ZM134.376 5.65L133.456 5.25945L134.376 5.65ZM136.351 2.8L137.037 3.52824L137.044 3.5211L136.351 2.8ZM139.326 0.924999L139.684 1.85913L139.695 1.85442L139.326 0.924999ZM146.976 1L146.587 1.92121L146.598 1.92575L146.976 1ZM149.976 3.175L150.661 3.90345L151.352 3.2539L150.74 2.52965L149.976 3.175ZM147.876 5.15L147.143 5.82976L147.828 6.56856L148.561 5.87845L147.876 5.15ZM145.751 3.625L145.343 4.53801L145.352 4.54165L145.36 4.54515L145.751 3.625ZM140.676 3.55L140.312 2.61873L140.305 2.62152L140.676 3.55ZM138.701 4.825L138.005 4.10742L138 4.11262L137.994 4.11789L138.701 4.825ZM137.401 6.775L136.48 6.38603L136.476 6.39478L136.473 6.40361L137.401 6.775ZM137.401 11.725L136.473 12.0964L136.476 12.1052L136.48 12.114L137.401 11.725ZM138.701 13.675L137.994 14.3821L138 14.3874L138.005 14.3926L138.701 13.675ZM140.676 14.95L140.305 15.8785L140.312 15.8812L140.676 14.95ZM145.751 14.9L146.143 15.8202L146.151 15.8167L146.159 15.813L145.751 14.9ZM147.876 13.325L148.566 12.6009L147.823 11.8933L147.135 12.6541L147.876 13.325ZM149.976 15.325L150.735 15.9769L151.354 15.2562L150.666 14.6009L149.976 15.325ZM146.976 17.5L146.587 16.5789L146.976 17.5ZM143.026 17.25C141.803 17.25 140.682 17.0516 139.654 16.6642L138.949 18.5358C140.221 19.015 141.583 19.25 143.026 19.25V17.25ZM139.67 16.6706C138.649 16.265 137.766 15.7065 137.012 14.9968L135.641 16.4532C136.587 17.3435 137.687 18.035 138.932 18.5294L139.67 16.6706ZM137.026 15.0108C136.289 14.2887 135.713 13.4411 135.297 12.4594L133.456 13.2405C133.973 14.4589 134.697 15.528 135.626 16.4392L137.026 15.0108ZM135.297 12.4594C134.887 11.4935 134.676 10.4277 134.676 9.25H132.676C132.676 10.6723 132.932 12.0065 133.456 13.2405L135.297 12.4594ZM134.676 9.25C134.676 8.07229 134.887 7.00651 135.297 6.04055L133.456 5.25945C132.932 6.49349 132.676 7.82771 132.676 9.25H134.676ZM135.297 6.04055C135.711 5.06509 136.29 4.23089 137.037 3.5282L135.666 2.0718C134.713 2.96911 133.975 4.03491 133.456 5.25945L135.297 6.04055ZM137.044 3.5211C137.795 2.79992 138.671 2.24602 139.684 1.85905L138.969 -0.0090524C137.715 0.470647 136.608 1.16675 135.659 2.07889L137.044 3.5211ZM139.695 1.85442C140.699 1.45579 141.814 1.25 143.051 1.25V-0.750001C141.589 -0.750001 140.22 -0.505797 138.957 -0.00441694L139.695 1.85442ZM143.051 1.25C144.366 1.25 145.54 1.47889 146.587 1.92115L147.366 0.0788538C146.046 -0.478896 144.603 -0.750001 143.051 -0.750001V1.25ZM146.598 1.92575C147.634 2.34874 148.501 2.97818 149.212 3.82035L150.74 2.52965C149.818 1.43848 148.686 0.617926 147.354 0.0742452L146.598 1.92575ZM149.291 2.44654L147.191 4.42155L148.561 5.87845L150.661 3.90345L149.291 2.44654ZM148.61 4.47024C147.89 3.69344 147.068 3.09836 146.143 2.70484L145.36 4.54515C146.002 4.8183 146.596 5.23989 147.143 5.82976L148.61 4.47024ZM146.159 2.71199C145.239 2.30078 144.249 2.1 143.201 2.1V4.1C143.987 4.1 144.697 4.24922 145.343 4.53801L146.159 2.71199ZM143.201 2.1C142.174 2.1 141.207 2.26845 140.312 2.61876L141.041 4.48124C141.679 4.23155 142.395 4.1 143.201 4.1V2.1ZM140.305 2.62152C139.437 2.96882 138.667 3.46449 138.005 4.10742L139.398 5.54258C139.869 5.08551 140.416 4.73118 141.048 4.47848L140.305 2.62152ZM137.994 4.11789C137.349 4.76336 136.845 5.5228 136.48 6.38603L138.323 7.16397C138.591 6.5272 138.954 5.98664 139.408 5.53211L137.994 4.11789ZM136.473 6.40361C136.121 7.28449 135.951 8.23728 135.951 9.25H137.951C137.951 8.46272 138.082 7.76551 138.33 7.14639L136.473 6.40361ZM135.951 9.25C135.951 10.2627 136.121 11.2155 136.473 12.0964L138.33 11.3536C138.082 10.7345 137.951 10.0373 137.951 9.25H135.951ZM136.48 12.114C136.845 12.9772 137.349 13.7366 137.994 14.3821L139.408 12.9679C138.954 12.5134 138.591 11.9728 138.323 11.336L136.48 12.114ZM138.005 14.3926C138.667 15.0355 139.437 15.5312 140.305 15.8785L141.048 14.0215C140.416 13.7688 139.869 13.4145 139.398 12.9574L138.005 14.3926ZM140.312 15.8812C141.207 16.2316 142.174 16.4 143.201 16.4V14.4C142.395 14.4 141.679 14.2684 141.041 14.0188L140.312 15.8812ZM143.201 16.4C144.242 16.4 145.227 16.2101 146.143 15.8202L145.36 13.9798C144.71 14.2565 143.994 14.4 143.201 14.4V16.4ZM146.159 15.813C147.082 15.4009 147.901 14.7885 148.618 13.9959L147.135 12.6541C146.585 13.2615 145.988 13.6991 145.343 13.987L146.159 15.813ZM147.187 14.0491L149.287 16.0491L150.666 14.6009L148.566 12.6009L147.187 14.0491ZM149.218 14.6731C148.505 15.503 147.632 16.1373 146.587 16.5789L147.366 18.4211C148.687 17.8627 149.815 17.047 150.735 15.9769L149.218 14.6731ZM146.587 16.5789C145.542 17.0205 144.36 17.25 143.026 17.25V19.25C144.593 19.25 146.044 18.9795 147.366 18.4211L146.587 16.5789ZM155.849 18H154.849V19H155.849V18ZM155.849 2.45L156.567 1.7542L154.849 -0.0194627V2.45H155.849ZM156.624 3.25V4.25H158.985L157.342 2.5542L156.624 3.25ZM150.074 3.25H149.074V4.25H150.074V3.25ZM150.074 0.499999V-0.500001H149.074V0.499999H150.074ZM164.874 0.499999H165.874V-0.500001H164.874V0.499999ZM164.874 3.25V4.25H165.874V3.25H164.874ZM158.324 3.25L157.594 2.56606L156.015 4.25H158.324V3.25ZM159.074 2.45H160.074V-0.078782L158.344 1.76606L159.074 2.45ZM159.074 18V19H160.074V18H159.074ZM156.849 18V2.45H154.849V18H156.849ZM155.13 3.14579L155.905 3.94579L157.342 2.5542L156.567 1.7542L155.13 3.14579ZM156.624 2.25H150.074V4.25H156.624V2.25ZM151.074 3.25V0.499999H149.074V3.25H151.074ZM150.074 1.5H164.874V-0.500001H150.074V1.5ZM163.874 0.499999V3.25H165.874V0.499999H163.874ZM164.874 2.25H158.324V4.25H164.874V2.25ZM159.053 3.93394L159.803 3.13394L158.344 1.76606L157.594 2.56606L159.053 3.93394ZM158.074 2.45V18H160.074V2.45H158.074ZM159.074 17H155.849V19H159.074V17ZM170.052 7.775V6.775H169.052V7.775H170.052ZM178.752 7.775H179.752V6.775H178.752V7.775ZM178.752 10.45V11.45H179.752V10.45H178.752ZM170.052 10.45H169.052V11.45H170.052V10.45ZM170.302 15.275H169.302V16.275H170.302V15.275ZM180.177 15.275H181.177V14.275H180.177V15.275ZM180.177 18V19H181.177V18H180.177ZM167.052 18H166.052V19H167.052V18ZM167.052 0.499999V-0.500001H166.052V0.499999H167.052ZM179.827 0.499999H180.827V-0.500001H179.827V0.499999ZM179.827 3.225V4.225H180.827V3.225H179.827ZM170.302 3.225V2.225H169.302V3.225H170.302ZM170.052 8.775H178.752V6.775H170.052V8.775ZM177.752 7.775V10.45H179.752V7.775H177.752ZM178.752 9.45H170.052V11.45H178.752V9.45ZM171.052 10.45V7.775H169.052V10.45H171.052ZM170.302 16.275H180.177V14.275H170.302V16.275ZM179.177 15.275V18H181.177V15.275H179.177ZM180.177 17H167.052V19H180.177V17ZM168.052 18V0.499999H166.052V18H168.052ZM167.052 1.5H179.827V-0.500001H167.052V1.5ZM178.827 0.499999V3.225H180.827V0.499999H178.827ZM179.827 2.225H170.302V4.225H179.827V2.225ZM169.302 3.225V15.275H171.302V3.225H169.302ZM193.784 17.6L193.415 18.5294L193.423 18.5327L193.431 18.5358L193.784 17.6ZM190.809 15.725L190.109 16.4392L190.116 16.4463L190.123 16.4532L190.809 15.725ZM188.859 12.85L187.938 13.2405L188.859 12.85ZM188.859 5.65L187.938 5.25945L188.859 5.65ZM190.834 2.8L191.519 3.52824L191.527 3.5211L190.834 2.8ZM193.809 0.924999L194.166 1.85913L194.178 1.85442L193.809 0.924999ZM201.459 1L201.07 1.92121L201.081 1.92575L201.459 1ZM204.459 3.175L205.144 3.90345L205.835 3.2539L205.223 2.52965L204.459 3.175ZM202.359 5.15L201.625 5.82976L202.31 6.56856L203.044 5.87845L202.359 5.15ZM200.234 3.625L199.826 4.53801L199.834 4.54165L199.842 4.54515L200.234 3.625ZM195.159 3.55L194.794 2.61873L194.787 2.62152L195.159 3.55ZM193.184 4.825L192.487 4.10742L192.482 4.11262L192.477 4.11789L193.184 4.825ZM191.884 6.775L190.963 6.38603L190.959 6.39478L190.955 6.40361L191.884 6.775ZM191.884 11.725L190.955 12.0964L190.959 12.1052L190.963 12.114L191.884 11.725ZM193.184 13.675L192.477 14.3821L192.482 14.3874L192.487 14.3926L193.184 13.675ZM195.159 14.95L194.787 15.8785L194.794 15.8812L195.159 14.95ZM200.234 14.9L200.625 15.8202L200.634 15.8167L200.642 15.813L200.234 14.9ZM202.359 13.325L203.048 12.6009L202.306 11.8933L201.617 12.6541L202.359 13.325ZM204.459 15.325L205.217 15.9769L205.837 15.2562L205.148 14.6009L204.459 15.325ZM201.459 17.5L201.07 16.5789L201.459 17.5ZM197.509 17.25C196.286 17.25 195.164 17.0516 194.136 16.6642L193.431 18.5358C194.703 19.015 196.065 19.25 197.509 19.25V17.25ZM194.153 16.6706C193.131 16.265 192.248 15.7065 191.494 14.9968L190.123 16.4532C191.069 17.3435 192.17 18.035 193.415 18.5294L194.153 16.6706ZM191.509 15.0108C190.772 14.2887 190.196 13.4411 189.779 12.4594L187.938 13.2405C188.455 14.4589 189.179 15.528 190.109 16.4392L191.509 15.0108ZM189.779 12.4594C189.37 11.4935 189.159 10.4277 189.159 9.25H187.159C187.159 10.6723 187.415 12.0065 187.938 13.2405L189.779 12.4594ZM189.159 9.25C189.159 8.07229 189.37 7.00651 189.779 6.04055L187.938 5.25945C187.415 6.49349 187.159 7.82771 187.159 9.25H189.159ZM189.779 6.04055C190.193 5.06509 190.773 4.23089 191.519 3.5282L190.148 2.0718C189.195 2.96911 188.458 4.03491 187.938 5.25945L189.779 6.04055ZM191.527 3.5211C192.277 2.79992 193.154 2.24602 194.166 1.85905L193.452 -0.0090524C192.197 0.470647 191.09 1.16675 190.141 2.07889L191.527 3.5211ZM194.178 1.85442C195.182 1.45579 196.297 1.25 197.534 1.25V-0.750001C196.071 -0.750001 194.702 -0.505797 193.44 -0.00441694L194.178 1.85442ZM197.534 1.25C198.849 1.25 200.023 1.47889 201.07 1.92115L201.848 0.0788538C200.528 -0.478896 199.085 -0.750001 197.534 -0.750001V1.25ZM201.081 1.92575C202.116 2.34874 202.983 2.97818 203.695 3.82035L205.223 2.52965C204.301 1.43848 203.168 0.617926 201.837 0.0742452L201.081 1.92575ZM203.774 2.44654L201.674 4.42155L203.044 5.87845L205.144 3.90345L203.774 2.44654ZM203.092 4.47024C202.372 3.69344 201.55 3.09836 200.625 2.70484L199.842 4.54515C200.484 4.8183 201.079 5.23989 201.625 5.82976L203.092 4.47024ZM200.642 2.71199C199.721 2.30078 198.731 2.1 197.684 2.1V4.1C198.47 4.1 199.18 4.24922 199.826 4.53801L200.642 2.71199ZM197.684 2.1C196.657 2.1 195.69 2.26845 194.794 2.61876L195.523 4.48124C196.161 4.23155 196.878 4.1 197.684 4.1V2.1ZM194.787 2.62152C193.919 2.96882 193.15 3.46449 192.487 4.10742L193.88 5.54258C194.351 5.08551 194.898 4.73118 195.53 4.47848L194.787 2.62152ZM192.477 4.11789C191.831 4.76336 191.327 5.5228 190.963 6.38603L192.805 7.16397C193.074 6.5272 193.436 5.98664 193.891 5.53211L192.477 4.11789ZM190.955 6.40361C190.603 7.28449 190.434 8.23728 190.434 9.25H192.434C192.434 8.46272 192.565 7.76551 192.812 7.14639L190.955 6.40361ZM190.434 9.25C190.434 10.2627 190.603 11.2155 190.955 12.0964L192.812 11.3536C192.565 10.7345 192.434 10.0373 192.434 9.25H190.434ZM190.963 12.114C191.327 12.9772 191.831 13.7366 192.477 14.3821L193.891 12.9679C193.436 12.5134 193.074 11.9728 192.805 11.336L190.963 12.114ZM192.487 14.3926C193.15 15.0355 193.919 15.5312 194.787 15.8785L195.53 14.0215C194.898 13.7688 194.351 13.4145 193.88 12.9574L192.487 14.3926ZM194.794 15.8812C195.69 16.2316 196.657 16.4 197.684 16.4V14.4C196.878 14.4 196.161 14.2684 195.523 14.0188L194.794 15.8812ZM197.684 16.4C198.725 16.4 199.709 16.2101 200.625 15.8202L199.842 13.9798C199.192 14.2565 198.476 14.4 197.684 14.4V16.4ZM200.642 15.813C201.564 15.4009 202.383 14.7885 203.1 13.9959L201.617 12.6541C201.068 13.2615 200.47 13.6991 199.826 13.987L200.642 15.813ZM201.669 14.0491L203.769 16.0491L205.148 14.6009L203.048 12.6009L201.669 14.0491ZM203.7 14.6731C202.987 15.503 202.114 16.1373 201.07 16.5789L201.848 18.4211C203.17 17.8627 204.297 17.047 205.217 15.9769L203.7 14.6731ZM201.07 16.5789C200.024 17.0205 198.842 17.25 197.509 17.25V19.25C199.075 19.25 200.527 18.9795 201.848 18.4211L201.07 16.5789ZM0.35 41H-0.65V42H0.35V41ZM0.35 23.5V22.5H-0.65V23.5H0.35ZM13.35 24.75L12.7461 25.5471L12.7539 25.5529L13.35 24.75ZM14.35 30.45L15.1821 31.0047L15.1884 30.995L14.35 30.45ZM12.6 31.975L13.0389 32.8736L13.0472 32.8694L12.6 31.975ZM10.25 32.5L9.35557 32.0528L8.63197 33.5H10.25V32.5ZM10.7 31.6V30.6H10.082L9.80557 31.1528L10.7 31.6ZM13.35 32.15L12.9261 33.0557L12.934 33.0594L12.9421 33.063L13.35 32.15ZM15.2 33.7L14.3648 34.25L14.3695 34.257L14.3742 34.264L15.2 33.7ZM3.6 38.45H2.6V39.45H3.6V38.45ZM11.65 37.85L11.1259 36.9983H11.1259L11.65 37.85ZM11.65 34.025L11.1103 34.8669L11.1181 34.8718L11.1259 34.8767L11.65 34.025ZM3.35 33.4H2.35V34.4H3.35V33.4ZM3.35 30.875V29.875H2.35V30.875H3.35ZM10.8 30.275L10.2558 29.436L10.2453 29.4429L10.8 30.275ZM10.8 26.65L10.2453 27.4821L10.2558 27.489L10.8 26.65ZM3.6 26.05V25.05H2.6V26.05H3.6ZM1.35 41V23.5H-0.65V41H1.35ZM0.35 24.5H8.55V22.5H0.35V24.5ZM8.55 24.5C10.5396 24.5 11.8897 24.8982 12.7461 25.5471L13.9539 23.9529C12.6104 22.9351 10.7604 22.5 8.55 22.5V24.5ZM12.7539 25.5529C13.5969 26.1788 14 26.9795 14 28.05H16C16 26.3538 15.3031 24.9546 13.9461 23.9471L12.7539 25.5529ZM14 28.05C14 28.8241 13.8222 29.4271 13.5116 29.905L15.1884 30.995C15.7445 30.1396 16 29.1425 16 28.05H14ZM13.518 29.8953C13.186 30.3932 12.7385 30.7877 12.1528 31.0806L13.0472 32.8694C13.9282 32.4289 14.6473 31.8068 15.1821 31.0047L13.518 29.8953ZM12.1612 31.0764C11.5901 31.3553 10.9581 31.5 10.25 31.5V33.5C11.2419 33.5 12.1766 33.2947 13.0388 32.8736L12.1612 31.0764ZM11.1444 32.9472L11.5944 32.0472L9.80557 31.1528L9.35557 32.0528L11.1444 32.9472ZM10.7 32.6C11.5569 32.6 12.2925 32.7591 12.9261 33.0557L13.7739 31.2443C12.8408 30.8075 11.8098 30.6 10.7 30.6V32.6ZM12.9421 33.063C13.5602 33.3392 14.0249 33.7339 14.3648 34.25L16.0352 33.15C15.4751 32.2995 14.7065 31.6608 13.7579 31.237L12.9421 33.063ZM14.3742 34.264C14.7037 34.7465 14.9 35.3881 14.9 36.25H16.9C16.9 35.0786 16.6296 34.0202 16.0258 33.136L14.3742 34.264ZM14.9 36.25C14.9 37.4506 14.462 38.3071 13.5882 38.9403L14.7618 40.5597C16.188 39.5262 16.9 38.0494 16.9 36.25H14.9ZM13.5882 38.9403C12.6835 39.5959 11.2219 40 9.05 40V42C11.4114 42 13.3665 41.5708 14.7618 40.5597L13.5882 38.9403ZM9.05 40H0.35V42H9.05V40ZM3.6 39.45H8.85V37.45H3.6V39.45ZM8.85 39.45C10.1518 39.45 11.2989 39.2403 12.1741 38.7017L11.1259 36.9983C10.7011 37.2597 9.9815 37.45 8.85 37.45V39.45ZM12.1741 38.7017C13.1709 38.0882 13.625 37.0911 13.625 35.925H11.625C11.625 36.5256 11.4291 36.8118 11.1259 36.9983L12.1741 38.7017ZM13.625 35.925C13.625 34.7669 13.1645 33.7828 12.1741 33.1733L11.1259 34.8767C11.4355 35.0672 11.625 35.3497 11.625 35.925H13.625ZM12.1897 33.1831C11.3107 32.6197 10.157 32.4 8.85 32.4V34.4C9.97631 34.4 10.6893 34.597 11.1103 34.8669L12.1897 33.1831ZM8.85 32.4H3.35V34.4H8.85V32.4ZM4.35 33.4V30.875H2.35V33.4H4.35ZM3.35 31.875H8.2V29.875H3.35V31.875ZM8.2 31.875C9.42682 31.875 10.5212 31.6627 11.3547 31.1071L10.2453 29.4429C9.87876 29.6873 9.23984 29.875 8.2 29.875V31.875ZM11.3442 31.114C12.2738 30.511 12.725 29.5782 12.725 28.475H10.725C10.725 28.9718 10.5596 29.239 10.2558 29.436L11.3442 31.114ZM12.725 28.475C12.725 27.364 12.2805 26.4184 11.3442 25.811L10.2558 27.489C10.5528 27.6816 10.725 27.9527 10.725 28.475H12.725ZM11.3547 25.8179C10.5212 25.2623 9.42682 25.05 8.2 25.05V27.05C9.23984 27.05 9.87876 27.2377 10.2453 27.482L11.3547 25.8179ZM8.2 25.05H3.6V27.05H8.2V25.05ZM2.6 26.05V38.45H4.6V26.05H2.6ZM21.7436 30.775V29.775H20.7436V30.775H21.7436ZM30.4436 30.775H31.4436V29.775H30.4436V30.775ZM30.4436 33.45V34.45H31.4436V33.45H30.4436ZM21.7436 33.45H20.7436V34.45H21.7436V33.45ZM21.9936 38.275H20.9936V39.275H21.9936V38.275ZM31.8686 38.275H32.8686V37.275H31.8686V38.275ZM31.8686 41V42H32.8686V41H31.8686ZM18.7436 41H17.7436V42H18.7436V41ZM18.7436 23.5V22.5H17.7436V23.5H18.7436ZM31.5186 23.5H32.5186V22.5H31.5186V23.5ZM31.5186 26.225V27.225H32.5186V26.225H31.5186ZM21.9936 26.225V25.225H20.9936V26.225H21.9936ZM21.7436 31.775H30.4436V29.775H21.7436V31.775ZM29.4436 30.775V33.45H31.4436V30.775H29.4436ZM30.4436 32.45H21.7436V34.45H30.4436V32.45ZM22.7436 33.45V30.775H20.7436V33.45H22.7436ZM21.9936 39.275H31.8686V37.275H21.9936V39.275ZM30.8686 38.275V41H32.8686V38.275H30.8686ZM31.8686 40H18.7436V42H31.8686V40ZM19.7436 41V23.5H17.7436V41H19.7436ZM18.7436 24.5H31.5186V22.5H18.7436V24.5ZM30.5186 23.5V26.225H32.5186V23.5H30.5186ZM31.5186 25.225H21.9936V27.225H31.5186V25.225ZM20.9936 26.225V38.275H22.9936V26.225H20.9936ZM45.5758 40.575L45.9402 39.6438L45.5758 40.575ZM42.5758 38.7L41.8829 39.4211L41.8904 39.4282L42.5758 38.7ZM40.6008 35.85L39.6802 36.2406L39.6824 36.2456L40.6008 35.85ZM40.6008 28.675L41.5192 29.0706L41.5214 29.0655L40.6008 28.675ZM42.5758 25.825L43.2612 26.5532L43.2686 26.5461L42.5758 25.825ZM45.5758 23.925L45.9402 24.8562L45.5758 23.925ZM53.0758 23.925L52.7067 24.8544L52.7114 24.8562L53.0758 23.925ZM56.0758 25.825L55.3829 26.5461L55.3904 26.5532L56.0758 25.825ZM58.0508 28.675L57.1302 29.0656L57.1324 29.0706L58.0508 28.675ZM58.0508 35.85L57.1302 35.4594L58.0508 35.85ZM56.0758 38.7L55.3904 37.9718V37.9718L56.0758 38.7ZM53.0758 40.575L52.7114 39.6437L52.7067 39.6456L53.0758 40.575ZM51.7758 37.95L52.1472 38.8785L51.7758 37.95ZM53.7258 36.675L54.4329 37.3821L54.4382 37.3768L54.4434 37.3715L53.7258 36.675ZM55.0008 34.725L54.0795 34.336L54.0752 34.3464L55.0008 34.725ZM55.0008 29.8L54.0723 30.1714L54.0773 30.184L54.0827 30.1964L55.0008 29.8ZM53.7258 27.85L53.0082 28.5465L53.0134 28.5518L53.0187 28.5571L53.7258 27.85ZM51.7758 26.55L52.1472 25.6215L51.7758 26.55ZM46.8758 26.55L46.5044 25.6215L46.4972 25.6245L46.8758 26.55ZM44.9258 27.85L44.2187 27.1429L44.9258 27.85ZM43.6258 29.8L42.7045 29.411L42.7002 29.4214L43.6258 29.8ZM43.6258 34.7L42.6973 35.0714L42.7008 35.0802L42.7045 35.089L43.6258 34.7ZM44.9258 36.675L44.2082 37.3715L44.2134 37.3768L44.2187 37.3821L44.9258 36.675ZM46.8758 37.95L47.2472 37.0215L46.8758 37.95ZM49.3508 40.25C48.0955 40.25 46.9623 40.0437 45.9402 39.6438L45.2114 41.5062C46.4893 42.0063 47.8727 42.25 49.3508 42.25V40.25ZM45.9402 39.6438C44.9022 39.2376 44.0128 38.6792 43.2611 37.9718L41.8904 39.4282C42.8388 40.3208 43.9494 41.0124 45.2114 41.5062L45.9402 39.6438ZM43.2686 37.9789C42.5148 37.2547 41.9332 36.4154 41.5192 35.4544L39.6824 36.2456C40.2017 37.4513 40.9367 38.512 41.883 39.4211L43.2686 37.9789ZM41.5214 35.4594C41.1116 34.4935 40.9008 33.4277 40.9008 32.25H38.9008C38.9008 33.6723 39.1567 35.0065 39.6802 36.2406L41.5214 35.4594ZM40.9008 32.25C40.9008 31.0721 41.1116 30.0168 41.5192 29.0706L39.6824 28.2794C39.1566 29.4999 38.9008 30.8279 38.9008 32.25H40.9008ZM41.5214 29.0655C41.9352 28.0901 42.5145 27.2559 43.2611 26.5532L41.8904 25.0968C40.937 25.9941 40.1997 27.0599 39.6802 28.2844L41.5214 29.0655ZM43.2686 26.5461C44.0195 25.8247 44.9065 25.2607 45.9402 24.8562L45.2114 22.9938C43.9451 23.4893 42.8321 24.192 41.883 25.1039L43.2686 26.5461ZM45.9402 24.8562C46.9637 24.4557 48.0888 24.25 49.3258 24.25V22.25C47.8627 22.25 46.4879 22.4943 45.2114 22.9938L45.9402 24.8562ZM49.3258 24.25C50.5813 24.25 51.7042 24.4563 52.7067 24.8544L53.4448 22.9956C52.1807 22.4936 50.8036 22.25 49.3258 22.25V24.25ZM52.7114 24.8562C53.7451 25.2607 54.6321 25.8247 55.383 26.5461L56.7686 25.1039C55.8195 24.192 54.7065 23.4893 53.4402 22.9938L52.7114 24.8562ZM55.3904 26.5532C56.137 27.2559 56.7164 28.0901 57.1302 29.0655L58.9714 28.2844C58.4519 27.0599 57.7145 25.9941 56.7611 25.0968L55.3904 26.5532ZM57.1324 29.0706C57.5399 30.0168 57.7508 31.0721 57.7508 32.25H59.7508C59.7508 30.8279 59.4949 29.4999 58.9692 28.2794L57.1324 29.0706ZM57.7508 32.25C57.7508 33.4277 57.54 34.4935 57.1302 35.4594L58.9714 36.2406C59.4949 35.0065 59.7508 33.6723 59.7508 32.25H57.7508ZM57.1302 35.4594C56.7164 36.4349 56.137 37.2691 55.3904 37.9718L56.7611 39.4282C57.7145 38.5309 58.4519 37.4651 58.9714 36.2406L57.1302 35.4594ZM55.3904 37.9718C54.6388 38.6792 53.7494 39.2376 52.7114 39.6438L53.4402 41.5062C54.7022 41.0124 55.8128 40.3208 56.7611 39.4282L55.3904 37.9718ZM52.7067 39.6456C51.7028 40.0442 50.5879 40.25 49.3508 40.25V42.25C50.8136 42.25 52.1821 42.0058 53.4448 41.5044L52.7067 39.6456ZM49.3258 39.4C50.3244 39.4 51.2684 39.23 52.1472 38.8785L51.4044 37.0215C50.7831 37.27 50.0938 37.4 49.3258 37.4V39.4ZM52.1472 38.8785C53.018 38.5302 53.7834 38.0316 54.4329 37.3821L53.0187 35.9679C52.5681 36.4184 52.0336 36.7698 51.4044 37.0215L52.1472 38.8785ZM54.4434 37.3715C55.0827 36.7128 55.5781 35.9548 55.9263 35.1036L54.0752 34.3464C53.8234 34.9618 53.4689 35.5039 53.0082 35.9785L54.4434 37.3715ZM55.922 35.114C56.2959 34.2285 56.4758 33.2695 56.4758 32.25H54.4758C54.4758 33.0305 54.339 33.7215 54.0795 34.336L55.922 35.114ZM56.4758 32.25C56.4758 31.2309 56.296 30.277 55.9188 29.4036L54.0827 30.1964C54.3389 30.7897 54.4758 31.4691 54.4758 32.25H56.4758ZM55.9293 29.4286C55.5809 28.5578 55.0823 27.7924 54.4329 27.1429L53.0187 28.5571C53.4692 29.0076 53.8206 29.5422 54.0723 30.1714L55.9293 29.4286ZM54.4434 27.1535C53.7933 26.4837 53.0245 25.9725 52.1472 25.6215L51.4044 27.4785C52.0271 27.7275 52.5583 28.0829 53.0082 28.5465L54.4434 27.1535ZM52.1472 25.6215C51.2684 25.27 50.3244 25.1 49.3258 25.1V27.1C50.0938 27.1 50.7831 27.23 51.4044 27.4785L52.1472 25.6215ZM49.3258 25.1C48.3272 25.1 47.3831 25.27 46.5044 25.6215L47.2472 27.4785C47.8684 27.23 48.5577 27.1 49.3258 27.1V25.1ZM46.4972 25.6245C45.6395 25.9753 44.8781 26.4834 44.2187 27.1429L45.6329 28.5571C46.1068 28.0832 46.6454 27.7247 47.2544 27.4755L46.4972 25.6245ZM44.2187 27.1429C43.5732 27.7884 43.069 28.5478 42.7045 29.411L44.547 30.189C44.8159 29.5522 45.1784 29.0116 45.6329 28.5571L44.2187 27.1429ZM42.7002 29.4214C42.3448 30.2901 42.1758 31.2377 42.1758 32.25H44.1758C44.1758 31.4623 44.3067 30.7766 44.5513 30.1786L42.7002 29.4214ZM42.1758 32.25C42.1758 33.2486 42.3458 34.1927 42.6973 35.0714L44.5543 34.3286C44.3057 33.7073 44.1758 33.0181 44.1758 32.25H42.1758ZM42.7045 35.089C43.0679 35.9496 43.5692 36.7131 44.2082 37.3715L45.6434 35.9785C45.1824 35.5036 44.817 34.9504 44.547 34.311L42.7045 35.089ZM44.2187 37.3821C44.8681 38.0316 45.6336 38.5302 46.5044 38.8785L47.2472 37.0215C46.618 36.7698 46.0834 36.4184 45.6329 35.9679L44.2187 37.3821ZM46.5044 38.8785C47.3831 39.23 48.3272 39.4 49.3258 39.4V37.4C48.5577 37.4 47.8684 37.27 47.2472 37.0215L46.5044 38.8785ZM61.5707 41H60.5707V42H61.5707V41ZM61.5707 23.5V22.5H60.5707V23.5H61.5707ZM64.2457 23.5L65.0211 22.8685L64.7209 22.5H64.2457V23.5ZM75.2207 36.975V37.975H77.3249L75.9961 36.3435L75.2207 36.975ZM73.8957 36.975H72.8957V37.975H73.8957V36.975ZM73.8957 23.5V22.5H72.8957V23.5H73.8957ZM77.1207 23.5H78.1207V22.5H77.1207V23.5ZM77.1207 41V42H78.1207V41H77.1207ZM74.4457 41L73.6703 41.6315L73.9705 42H74.4457V41ZM63.4707 27.525V26.525H61.3665L62.6953 28.1565L63.4707 27.525ZM64.7957 27.525H65.7957V26.525H64.7957V27.525ZM64.7957 41V42H65.7957V41H64.7957ZM62.5707 41V23.5H60.5707V41H62.5707ZM61.5707 24.5H64.2457V22.5H61.5707V24.5ZM63.4703 24.1315L74.4453 37.6065L75.9961 36.3435L65.0211 22.8685L63.4703 24.1315ZM75.2207 35.975H73.8957V37.975H75.2207V35.975ZM74.8957 36.975V23.5H72.8957V36.975H74.8957ZM73.8957 24.5H77.1207V22.5H73.8957V24.5ZM76.1207 23.5V41H78.1207V23.5H76.1207ZM77.1207 40H74.4457V42H77.1207V40ZM75.2211 40.3685L64.2461 26.8935L62.6953 28.1565L73.6703 41.6315L75.2211 40.3685ZM63.4707 28.525H64.7957V26.525H63.4707V28.525ZM63.7957 27.525V41H65.7957V27.525H63.7957ZM64.7957 40H61.5707V42H64.7957V40ZM84.185 30.775V29.775H83.185V30.775H84.185ZM92.885 30.775H93.885V29.775H92.885V30.775ZM92.885 33.45V34.45H93.885V33.45H92.885ZM84.185 33.45H83.185V34.45H84.185V33.45ZM84.435 38.275H83.435V39.275H84.435V38.275ZM94.31 38.275H95.31V37.275H94.31V38.275ZM94.31 41V42H95.31V41H94.31ZM81.185 41H80.185V42H81.185V41ZM81.185 23.5V22.5H80.185V23.5H81.185ZM93.96 23.5H94.96V22.5H93.96V23.5ZM93.96 26.225V27.225H94.96V26.225H93.96ZM84.435 26.225V25.225H83.435V26.225H84.435ZM84.185 31.775H92.885V29.775H84.185V31.775ZM91.885 30.775V33.45H93.885V30.775H91.885ZM92.885 32.45H84.185V34.45H92.885V32.45ZM85.185 33.45V30.775H83.185V33.45H85.185ZM84.435 39.275H94.31V37.275H84.435V39.275ZM93.31 38.275V41H95.31V38.275H93.31ZM94.31 40H81.185V42H94.31V40ZM82.185 41V23.5H80.185V41H82.185ZM81.185 24.5H93.96V22.5H81.185V24.5ZM92.96 23.5V26.225H94.96V23.5H92.96ZM93.96 25.225H84.435V27.225H93.96V25.225ZM83.435 26.225V38.275H85.435V26.225H83.435Z" fill="white" mask="url(#path-1-outside-1_389_6608)"/>
</svg>
