<svg width="21" height="20" viewBox="0 0 21 20" fill="none" xmlns="http://www.w3.org/2000/svg">
<path d="M4.66797 5.8335H16.1596C16.3925 5.8335 16.6228 5.88231 16.8356 5.97675C17.0484 6.0712 17.2391 6.20919 17.3953 6.38184C17.5516 6.55449 17.6699 6.75796 17.7427 6.97914C17.8155 7.20032 17.8411 7.4343 17.818 7.666L17.318 12.666C17.2768 13.0773 17.0844 13.4586 16.7779 13.7359C16.4715 14.0132 16.0729 14.1668 15.6596 14.1668H7.7013C7.31586 14.167 6.94228 14.0335 6.64417 13.7892C6.34606 13.5449 6.14185 13.2048 6.0663 12.8268L4.66797 5.8335Z" stroke="white" stroke-width="2" stroke-linejoin="round"/>
<path d="M4.66797 5.83333L3.99297 3.13083C3.94783 2.95063 3.84376 2.79067 3.69731 2.67638C3.55085 2.56209 3.37041 2.5 3.18464 2.5H2.16797" stroke="white" stroke-width="2" stroke-linecap="round" stroke-linejoin="round"/>
<path d="M7.16797 17.5H8.83463" stroke="white" stroke-width="2" stroke-linecap="round" stroke-linejoin="round"/>
<path d="M13.8359 17.5H15.5026" stroke="white" stroke-width="2" stroke-linecap="round" stroke-linejoin="round"/>
</svg>
