<svg width="35" height="67" viewBox="0 0 35 67" fill="none" xmlns="http://www.w3.org/2000/svg">
<g clip-path="url(#clip0_382_24880)">
<path d="M33.8935 6.13589C34.1905 5.82163 34.4226 5.45196 34.5767 5.04798C34.7309 4.644 34.8039 4.21362 34.7916 3.78142C34.7794 3.34921 34.6822 2.92365 34.5055 2.52903C34.3288 2.1344 34.0761 1.77844 33.7619 1.48148C33.4476 1.18451 33.0779 0.952346 32.6739 0.798245C32.27 0.644144 31.8396 0.571122 31.4074 0.583348C30.9752 0.595574 30.5496 0.69281 30.155 0.869502C29.7604 1.04619 29.4044 1.29888 29.1074 1.61314L1.12827 31.2381C0.550461 31.8493 0.228516 32.6585 0.228516 33.4995C0.228516 34.3406 0.550461 35.1497 1.12827 35.7609L29.1074 65.3892C29.4024 65.7103 29.7583 65.9697 30.1544 66.1521C30.5505 66.3345 30.9788 66.4364 31.4146 66.4519C31.8504 66.4674 32.285 66.3961 32.693 66.2423C33.101 66.0884 33.4744 65.855 33.7915 65.5556C34.1085 65.2562 34.3629 64.8968 34.5399 64.4983C34.7169 64.0997 34.8129 63.67 34.8224 63.234C34.8319 62.798 34.7547 62.3645 34.5952 61.9587C34.4358 61.5528 34.1972 61.1826 33.8935 60.8697L8.04735 33.4995L33.8935 6.13589Z" fill="#ADBDC7"/>
</g>
<defs>
<clipPath id="clip0_382_24880">
<rect width="35" height="67" fill="white"/>
</clipPath>
</defs>
</svg>
