<svg width="26" height="26" viewBox="0 0 26 26" fill="none" xmlns="http://www.w3.org/2000/svg">
<g clip-path="url(#clip0_127_3076)">
<path d="M4.82418 0C3.54626 0.00497977 2.3221 0.514839 1.41847 1.41847C0.514839 2.3221 0.00497977 3.54626 0 4.82418V21.1758C0.00497977 22.4537 0.514839 23.6779 1.41847 24.5815C2.3221 25.4852 3.54626 25.995 4.82418 26H21.1758C22.4537 25.995 23.6779 25.4852 24.5815 24.5815C25.4852 23.6779 25.995 22.4537 26 21.1758V4.82418C25.995 3.54626 25.4852 2.3221 24.5815 1.41847C23.6779 0.514839 22.4537 0.00497977 21.1758 0H4.82418ZM4.82418 2.36364H21.1758C22.5467 2.36364 23.6364 3.45327 23.6364 4.82418V21.1758C23.6364 22.5467 22.5467 23.6364 21.1758 23.6364H4.82418C4.50049 23.6384 4.17961 23.5762 3.88016 23.4532C3.58071 23.3303 3.30866 23.1491 3.07977 22.9202C2.85087 22.6913 2.66971 22.4193 2.54678 22.1198C2.42385 21.8204 2.3616 21.4995 2.36364 21.1758V4.82418C2.36364 3.45327 3.45327 2.36364 4.82418 2.36364ZM12.6679 8.54454C11.7993 8.53627 11.0606 8.54455 10.6458 8.74782C10.3681 8.88255 10.1565 9.18627 10.2854 9.20045C10.4473 9.22409 10.8113 9.30209 11.0063 9.56564C11.2545 9.90245 11.2462 10.6647 11.2462 10.6647C11.2462 10.6647 11.3845 12.7601 10.9082 13.0236C10.5808 13.2033 10.1329 12.8381 9.16382 11.1717C8.66982 10.3137 8.29636 9.36709 8.29636 9.36709C8.29636 9.36709 8.22545 9.191 8.09782 9.09882C7.94064 8.98418 7.72318 8.94636 7.72318 8.94636L5.41036 8.96054C5.41036 8.96054 5.06409 8.97473 4.94 9.12245C4.82418 9.26073 4.93055 9.53255 4.93055 9.53255C4.93055 9.53255 6.73991 13.7658 8.78918 15.899C10.6683 17.8573 12.8015 17.7273 12.8015 17.7273H13.7705C13.7705 17.7273 14.0613 17.6954 14.209 17.5382C14.3485 17.3905 14.3437 17.1127 14.3437 17.1127C14.3437 17.1127 14.3248 15.8163 14.9252 15.6225C15.5208 15.4369 16.2772 16.8775 17.0855 17.4318C17.7001 17.8514 18.1657 17.7592 18.1657 17.7592L20.3273 17.7273C20.3273 17.7273 21.4535 17.6575 20.9182 16.7665C20.8768 16.6979 20.6085 16.1117 19.3168 14.911C17.9589 13.6559 18.1397 13.8592 19.773 11.6846C20.7657 10.3598 21.1628 9.55145 21.0375 9.20045C20.9194 8.87309 20.189 8.96054 20.189 8.96054L17.7556 8.97473C17.7556 8.97473 17.576 8.95109 17.4425 9.03027C17.3506 9.09847 17.2775 9.1887 17.2297 9.29264C17.2297 9.29264 16.8421 10.3173 16.3292 11.1906C15.249 13.0272 14.8105 13.1288 14.6356 13.0142C14.2244 12.7459 14.326 11.9423 14.326 11.375C14.326 9.58809 14.5978 8.84945 13.8001 8.65682C13.5365 8.59182 13.3427 8.55045 12.6691 8.54454H12.6679Z" fill="white"/>
</g>
<defs>
<clipPath id="clip0_127_3076">
<rect width="26" height="26" fill="white"/>
</clipPath>
</defs>
</svg>
